<svg xmlns="http://www.w3.org/2000/svg" viewBox="0 0 128 128" fill="none">
  <!-- Background Circle with Gradient -->
  <circle cx="64" cy="64" r="60" fill="url(#bg-gradient)" />
  
  <!-- RH Monogram -->
  <g fill="white">
    <!-- R -->
    <path d="M35 40h18c7.732 0 14 6.268 14 14 0 5.5-3.172 10.26-7.787 12.553L67 80h-8l-7-12h-7v12h-10V40zm10 8v12h8c3.314 0 6-2.686 6-6s-2.686-6-6-6h-8z"/>
    <!-- H -->
    <path d="M73 40h10v16h14V40h10v40h-10V64H83v16h-10V40z"/>
  </g>
  
  <!-- Gradient Definition -->
  <defs>
    <linearGradient id="bg-gradient" x1="0%" y1="0%" x2="100%" y2="100%">
      <stop offset="0%" style="stop-color:#6366f1;stop-opacity:1" />
      <stop offset="100%" style="stop-color:#a855f7;stop-opacity:1" />
    </linearGradient>
  </defs>
  
  <style>
    @media (prefers-color-scheme: dark) {
      circle { opacity: 0.9; }
    }
  </style>
</svg>
