<svg xmlns="http://www.w3.org/2000/svg" viewBox="0 0 100 100" width="100" height="100">
  <defs>
    <linearGradient id="code-grad" x1="0%" y1="0%" x2="100%" y2="100%">
      <stop offset="0%" style="stop-color:#6366f1;stop-opacity:1" />
      <stop offset="100%" style="stop-color:#3b82f6;stop-opacity:1" />
    </linearGradient>
  </defs>
  <rect width="100" height="100" fill="#f8fafc"/>
  <!-- Histogram-like bars -->
  <rect x="15" y="70" width="8" height="20" fill="url(#code-grad)" opacity="0.8"/>
  <rect x="27" y="50" width="8" height="40" fill="url(#code-grad)" opacity="0.7"/>
  <rect x="39" y="30" width="8" height="60" fill="url(#code-grad)" opacity="0.9"/>
  <rect x="51" y="40" width="8" height="50" fill="url(#code-grad)" opacity="0.75"/>
  <rect x="63" y="55" width="8" height="35" fill="url(#code-grad)" opacity="0.85"/>
  <rect x="75" y="45" width="8" height="45" fill="url(#code-grad)" opacity="0.8"/>
  <!-- Connecting line -->
  <polyline points="19,70 31,50 43,30 55,40 67,55 79,45" stroke="#8b5cf6" stroke-width="2" fill="none" opacity="0.5"/>
  <!-- Dots -->
  <circle cx="19" cy="70" r="2" fill="#6366f1"/>
  <circle cx="31" cy="50" r="2" fill="#6366f1"/>
  <circle cx="43" cy="30" r="2" fill="#6366f1"/>
  <circle cx="55" cy="40" r="2" fill="#6366f1"/>
  <circle cx="67" cy="55" r="2" fill="#6366f1"/>
  <circle cx="79" cy="45" r="2" fill="#6366f1"/>
</svg>