<svg xmlns="http://www.w3.org/2000/svg" viewBox="0 0 100 100" width="100" height="100">
  <defs>
    <linearGradient id="heart-grad" x1="0%" y1="0%" x2="100%" y2="100%">
      <stop offset="0%" style="stop-color:#ec4899;stop-opacity:1" />
      <stop offset="100%" style="stop-color:#f472b6;stop-opacity:1" />
    </linearGradient>
  </defs>
  <rect width="100" height="100" fill="#fef2f8"/>
  <!-- Pulse wave visualization -->
  <rect x="10" y="50" width="4" height="15" fill="url(#heart-grad)" opacity="0.6"/>
  <rect x="18" y="45" width="4" height="25" fill="url(#heart-grad)" opacity="0.7"/>
  <rect x="26" y="35" width="4" height="35" fill="url(#heart-grad)" opacity="0.8"/>
  <rect x="34" y="25" width="4" height="50" fill="url(#heart-grad)" opacity="0.9"/>
  <rect x="42" y="20" width="4" height="55" fill="url(#heart-grad)" opacity="1"/>
  <rect x="50" y="30" width="4" height="40" fill="url(#heart-grad)" opacity="0.9"/>
  <rect x="58" y="35" width="4" height="35" fill="url(#heart-grad)" opacity="0.8"/>
  <rect x="66" y="25" width="4" height="50" fill="url(#heart-grad)" opacity="0.9"/>
  <rect x="74" y="40" width="4" height="30" fill="url(#heart-grad)" opacity="0.7"/>
  <rect x="82" y="50" width="4" height="15" fill="url(#heart-grad)" opacity="0.6"/>
  <!-- ECG line effect -->
  <path d="M10,55 L22,55 L26,40 L30,65 L34,25 L38,75 L42,20 L46,70 L50,35 L54,60 L58,40 L62,60 L66,30 L70,70 L74,45 L78,55 L90,55" 
        stroke="#ec4899" stroke-width="1.5" fill="none" opacity="0.7"/>
</svg>