<svg xmlns="http://www.w3.org/2000/svg" viewBox="0 0 100 100" width="100" height="100">
  <defs>
    <linearGradient id="mountain-grad" x1="0%" y1="100%" x2="0%" y2="0%">
      <stop offset="0%" style="stop-color:#16a34a;stop-opacity:1" />
      <stop offset="50%" style="stop-color:#64748b;stop-opacity:1" />
      <stop offset="100%" style="stop-color:#0ea5e9;stop-opacity:1" />
    </linearGradient>
  </defs>
  <rect width="100" height="100" fill="#f0f9ff"/>
  <!-- Elevation profile bars -->
  <rect x="10" y="75" width="6" height="15" fill="url(#mountain-grad)" opacity="0.7"/>
  <rect x="19" y="70" width="6" height="20" fill="url(#mountain-grad)" opacity="0.75"/>
  <rect x="28" y="60" width="6" height="30" fill="url(#mountain-grad)" opacity="0.8"/>
  <rect x="37" y="45" width="6" height="45" fill="url(#mountain-grad)" opacity="0.85"/>
  <rect x="46" y="25" width="6" height="65" fill="url(#mountain-grad)" opacity="0.9"/>
  <rect x="55" y="35" width="6" height="55" fill="url(#mountain-grad)" opacity="0.85"/>
  <rect x="64" y="50" width="6" height="40" fill="url(#mountain-grad)" opacity="0.8"/>
  <rect x="73" y="65" width="6" height="25" fill="url(#mountain-grad)" opacity="0.75"/>
  <rect x="82" y="80" width="6" height="10" fill="url(#mountain-grad)" opacity="0.7"/>
  <!-- Elevation line -->
  <polyline points="13,75 22,70 31,60 40,45 49,25 58,35 67,50 76,65 85,80" 
            stroke="#475569" stroke-width="2" fill="none" opacity="0.6"/>
  <!-- Peak markers -->
  <circle cx="49" cy="25" r="3" fill="#0ea5e9"/>
  <circle cx="40" cy="45" r="2" fill="#64748b"/>
  <circle cx="58" cy="35" r="2" fill="#64748b"/>
</svg>