<svg xmlns="http://www.w3.org/2000/svg" viewBox="0 0 100 100" width="100" height="100">
  <rect width="100" height="100" rx="15" fill="#fce7f3"/>
  <path d="M50,85 C30,65 15,50 15,35 C15,25 23,17 33,17 C40,17 46,21 50,26 C54,21 60,17 67,17 C77,17 85,25 85,35 C85,50 70,65 50,85Z" fill="#ec4899"/>
  <path d="M50,85 C30,65 15,50 15,35 C15,25 23,17 33,17 C40,17 46,21 50,26 C54,21 60,17 67,17 C77,17 85,25 85,35 C85,50 70,65 50,85Z" fill="url(#heart-gradient)" opacity="0.5"/>
  <circle cx="35" cy="35" r="3" fill="#fff" opacity="0.8"/>
  <defs>
    <linearGradient id="heart-gradient" x1="0%" y1="0%" x2="100%" y2="100%">
      <stop offset="0%" style="stop-color:#f472b6;stop-opacity:1" />
      <stop offset="100%" style="stop-color:#ec4899;stop-opacity:1" />
    </linearGradient>
  </defs>
</svg>