<?xml version="1.0" encoding="UTF-8"?>
<svg xmlns="http://www.w3.org/2000/svg" width="700" height="440" viewBox="0 0 700 440" role="img" aria-labelledby="title description">
  <title id="title">Repository count and language percentage</title>
  <desc id="description">Each dot is a language. The horizontal axis shows repository count and the logarithmic vertical axis shows percentage of language bytes.</desc>
  <style>
    text { fill: #1f2328; font-family: -apple-system, BlinkMacSystemFont, 'Segoe UI', sans-serif; font-variant-numeric: tabular-nums; }
    .axis, .grid, .leader { stroke: #8b949e; vector-effect: non-scaling-stroke; }
    .axis { stroke-width: 1; }
    .grid { stroke-width: 0.75; stroke-opacity: 0.28; }
    .leader { stroke-width: 0.75; stroke-opacity: 0.65; }
    .tick { font-size: 10px; }
    .label { font-size: 10px; }
    .axis-label { font-size: 11px; font-weight: 600; }
    @media (prefers-color-scheme: dark) { text { fill: #f0f6fc; } }
  </style>
  <g>
    <line class="grid" x1="62" y1="394" x2="680" y2="394" />
    <text class="tick" x="53" y="397.5" text-anchor="end">0.001%</text>
    <line class="grid" x1="62" y1="319.2" x2="680" y2="319.2" />
    <text class="tick" x="53" y="322.7" text-anchor="end">0.01%</text>
    <line class="grid" x1="62" y1="244.4" x2="680" y2="244.4" />
    <text class="tick" x="53" y="247.9" text-anchor="end">0.1%</text>
    <line class="grid" x1="62" y1="169.6" x2="680" y2="169.6" />
    <text class="tick" x="53" y="173.1" text-anchor="end">1%</text>
    <line class="grid" x1="62" y1="94.8" x2="680" y2="94.8" />
    <text class="tick" x="53" y="98.3" text-anchor="end">10%</text>
    <line class="grid" x1="62" y1="20" x2="680" y2="20" />
    <text class="tick" x="53" y="23.5" text-anchor="end">100%</text>
    <line class="axis" x1="62" y1="20" x2="62" y2="394" />
    <line class="axis" x1="62" y1="394" x2="680" y2="394" />
    <line class="axis" x1="62" y1="394" x2="62" y2="399" />
    <text class="tick" x="62" y="412" text-anchor="middle">0</text>
    <line class="axis" x1="150.286" y1="394" x2="150.286" y2="399" />
    <text class="tick" x="150.286" y="412" text-anchor="middle">5</text>
    <line class="axis" x1="238.571" y1="394" x2="238.571" y2="399" />
    <text class="tick" x="238.571" y="412" text-anchor="middle">10</text>
    <line class="axis" x1="326.857" y1="394" x2="326.857" y2="399" />
    <text class="tick" x="326.857" y="412" text-anchor="middle">15</text>
    <line class="axis" x1="415.143" y1="394" x2="415.143" y2="399" />
    <text class="tick" x="415.143" y="412" text-anchor="middle">20</text>
    <line class="axis" x1="503.429" y1="394" x2="503.429" y2="399" />
    <text class="tick" x="503.429" y="412" text-anchor="middle">25</text>
    <line class="axis" x1="591.714" y1="394" x2="591.714" y2="399" />
    <text class="tick" x="591.714" y="412" text-anchor="middle">30</text>
    <line class="axis" x1="680" y1="394" x2="680" y2="399" />
    <text class="tick" x="680" y="412" text-anchor="middle">35</text>
    <text class="axis-label" x="371" y="432" text-anchor="middle">repositories</text>
    <text class="axis-label" x="15" y="207" text-anchor="middle" transform="rotate(-90 15 207)">bytes % (log scale)</text>
    <circle cx="362.171" cy="43.494" r="4" fill="#3572A5"><title>Python — 48.5% — 17 repositories</title></circle>
    <circle cx="397.486" cy="64.939" r="4" fill="#3178c6"><title>TypeScript — 25.1% — 19 repositories</title></circle>
    <circle cx="150.286" cy="123.089" r="4" fill="#a52a22"><title>Jinja — 4.2% — 5 repositories</title></circle>
    <circle cx="220.914" cy="123.417" r="4" fill="#00ADD8"><title>Go — 4.1% — 9 repositories</title></circle>
    <circle cx="362.171" cy="130.031" r="4" fill="#4F5D95"><title>PHP — 3.4% — 17 repositories</title></circle>
    <circle cx="415.143" cy="131.831" r="4" fill="#e34c26"><title>HTML — 3.2% — 20 repositories</title></circle>
    <circle cx="432.8" cy="140.006" r="4" fill="#f1e05a"><title>JavaScript — 2.5% — 21 repositories</title></circle>
    <circle cx="185.6" cy="140.165" r="4" fill="#41b883"><title>Vue — 2.5% — 7 repositories</title></circle>
    <circle cx="167.943" cy="146.366" r="4" fill="#dea584"><title>Rust — 2.0% — 6 repositories</title></circle>
    <circle cx="362.171" cy="169.529" r="4" fill="#663399"><title>CSS — 1.0% — 17 repositories</title></circle>
    <circle cx="132.629" cy="175.493" r="4" fill="#239dad"><title>Typst — 0.8% — 4 repositories</title></circle>
    <circle cx="220.914" cy="182.368" r="4" fill="#89e051"><title>Shell — 0.7% — 9 repositories</title></circle>
    <circle cx="627.029" cy="189.306" r="4" fill="#427819"><title>Makefile — 0.5% — 32 repositories</title></circle>
    <circle cx="79.657" cy="222.013" r="4" fill="#000080"><title>Lua — 0.2% — 1 repository</title></circle>
    <circle cx="97.314" cy="228.668" r="4" fill="#701516"><title>Ruby — 0.2% — 2 repositories</title></circle>
    <circle cx="79.657" cy="232.735" r="4" fill="#c6538c"><title>SCSS — 0.1% — 1 repository</title></circle>
    <circle cx="79.657" cy="233.009" r="4" fill="#DA5B0B"><title>Jupyter Notebook — 0.1% — 1 repository</title></circle>
    <circle cx="309.2" cy="239.467" r="4" fill="#384d54"><title>Dockerfile — 0.1% — 14 repositories</title></circle>
    <circle cx="79.657" cy="244.694" r="4" fill="#f34b7d"><title>C++ — 0.099% — 1 repository</title></circle>
    <circle cx="114.971" cy="246.272" r="4" fill="#3D6117"><title>TeX — 0.094% — 3 repositories</title></circle>
    <circle cx="79.657" cy="249.871" r="4" fill="#844FBA"><title>HCL — 0.085% — 1 repository</title></circle>
    <circle cx="79.657" cy="255.434" r="4" fill="#8b949e"><title>NSIS — 0.071% — 1 repository</title></circle>
    <circle cx="79.657" cy="255.48" r="4" fill="#526ee8"><title>D2 — 0.071% — 1 repository</title></circle>
    <circle cx="114.971" cy="260.511" r="4" fill="#b07219"><title>Java — 0.061% — 3 repositories</title></circle>
    <circle cx="79.657" cy="265.147" r="4" fill="#012456"><title>PowerShell — 0.053% — 1 repository</title></circle>
    <circle cx="97.314" cy="269.555" r="4" fill="#5e5086"><title>Haskell — 0.046% — 2 repositories</title></circle>
    <circle cx="79.657" cy="275.155" r="4" fill="#c22d40"><title>Scala — 0.039% — 1 repository</title></circle>
    <circle cx="79.657" cy="299.747" r="4" fill="#ff3670"><title>Mermaid — 0.018% — 1 repository</title></circle>
    <circle cx="79.657" cy="311.951" r="4" fill="#878787"><title>Hack — 0.013% — 1 repository</title></circle>
    <circle cx="79.657" cy="322.623" r="4" fill="#8b949e"><title>M4 — 0.009% — 1 repository</title></circle>
    <circle cx="79.657" cy="333.194" r="4" fill="#336790"><title>PLpgSQL — 0.006% — 1 repository</title></circle>
    <circle cx="79.657" cy="343.727" r="4" fill="#199f4b"><title>Vim Script — 0.005% — 1 repository</title></circle>
    <circle cx="79.657" cy="371.483" r="4" fill="#00ADD8"><title>Go Template — 0.002% — 1 repository</title></circle>
    <circle cx="79.657" cy="380.828" r="4" fill="#8ea64c"><title>Tree-sitter Query — 0.002% — 1 repository</title></circle>
    <text class="label" x="370.171" y="46.994" text-anchor="start">Python</text>
    <text class="label" x="405.486" y="68.439" text-anchor="start">TypeScript</text>
    <text class="label" x="158.286" y="126.589" text-anchor="start">Jinja</text>
    <text class="label" x="228.914" y="126.917" text-anchor="start">Go</text>
    <text class="label" x="370.171" y="133.531" text-anchor="start">PHP</text>
    <text class="label" x="423.143" y="135.331" text-anchor="start">HTML</text>
    <line class="leader" x1="432.8" y1="140.006" x2="440.8" y2="152.506" />
    <text class="label" x="440.8" y="155.506" text-anchor="start">JavaScript</text>
    <text class="label" x="193.6" y="143.665" text-anchor="start">Vue</text>
    <text class="label" x="159.943" y="149.866" text-anchor="end">Rust</text>
    <text class="label" x="370.171" y="173.029" text-anchor="start">CSS</text>
    <text class="label" x="140.629" y="178.993" text-anchor="start">Typst</text>
    <text class="label" x="228.914" y="185.868" text-anchor="start">Shell</text>
    <text class="label" x="619.029" y="192.806" text-anchor="end">Makefile</text>
    <text class="label" x="87.657" y="225.513" text-anchor="start">Lua</text>
    <line class="leader" x1="97.314" y1="228.668" x2="105.314" y2="241.168" />
    <text class="label" x="105.314" y="244.168" text-anchor="start">Ruby</text>
    <line class="leader" x1="79.657" y1="232.735" x2="87.657" y2="257.235" />
    <text class="label" x="87.657" y="260.235" text-anchor="start">SCSS</text>
    <line class="leader" x1="79.657" y1="233.009" x2="87.657" y2="197.509" />
    <text class="label" x="87.657" y="200.509" text-anchor="start">Jupyter Notebook</text>
    <text class="label" x="317.2" y="242.967" text-anchor="start">Dockerfile</text>
    <line class="leader" x1="79.657" y1="244.694" x2="87.657" y2="281.194" />
    <text class="label" x="87.657" y="284.194" text-anchor="start">C++</text>
    <line class="leader" x1="114.971" y1="246.272" x2="122.971" y2="258.772" />
    <text class="label" x="122.971" y="261.772" text-anchor="start">TeX</text>
    <line class="leader" x1="79.657" y1="249.871" x2="87.657" y2="298.371" />
    <text class="label" x="87.657" y="301.371" text-anchor="start">HCL</text>
    <line class="leader" x1="79.657" y1="255.434" x2="87.657" y2="315.934" />
    <text class="label" x="87.657" y="318.934" text-anchor="start">NSIS</text>
    <line class="leader" x1="79.657" y1="255.48" x2="87.657" y2="171.98" />
    <text class="label" x="87.657" y="174.98" text-anchor="start">D2</text>
    <line class="leader" x1="114.971" y1="260.511" x2="122.971" y2="273.011" />
    <text class="label" x="122.971" y="276.011" text-anchor="start">Java</text>
    <line class="leader" x1="79.657" y1="265.147" x2="87.657" y2="337.647" />
    <text class="label" x="87.657" y="340.647" text-anchor="start">PowerShell</text>
    <line class="leader" x1="97.314" y1="269.555" x2="105.314" y2="354.055" />
    <text class="label" x="105.314" y="357.055" text-anchor="start">Haskell</text>
    <line class="leader" x1="79.657" y1="275.155" x2="87.657" y2="371.655" />
    <text class="label" x="87.657" y="374.655" text-anchor="start">Scala</text>
  </g>
</svg>
